<svg width="40" height="40" viewBox="0 0 40 40" fill="none" xmlns="http://www.w3.org/2000/svg">
<path fill-rule="evenodd" clip-rule="evenodd" d="M34 0H22.26C20.66 0 19.14 0.64 18.02 1.76L1.75997 18.02C0.636366 19.145 0.00524902 20.67 0.00524902 22.26C0.00524902 23.85 0.636366 25.375 1.75997 26.5L13.5 38.24C14.056 38.7981 14.7168 39.2408 15.4444 39.5429C16.1721 39.8449 16.9522 40.0002 17.74 40C19.26 40 20.82 39.42 21.98 38.24L38.24 22C39.3627 20.874 39.9953 19.3501 40 17.76V6C40 2.68 37.32 0 34 0ZM28.666 14.667C29.1037 14.667 29.5372 14.5808 29.9416 14.4133C30.3461 14.2457 30.7136 14.0002 31.0231 13.6906C31.3327 13.3811 31.5782 13.0136 31.7457 12.6092C31.9132 12.2047 31.9995 11.7713 31.9995 11.3335C31.9995 10.8957 31.9132 10.4623 31.7457 10.0578C31.5782 9.65339 31.3327 9.2859 31.0231 8.97636C30.7136 8.66681 30.3461 8.42127 29.9416 8.25375C29.5372 8.08622 29.1037 8 28.666 8C27.7819 8 26.934 8.35121 26.3088 8.97636C25.6837 9.60151 25.3325 10.4494 25.3325 11.3335C25.3325 12.2176 25.6837 13.0655 26.3088 13.6906C26.934 14.3158 27.7819 14.667 28.666 14.667Z" fill="#8AB4F8"/>
</svg>
